# xmcd
#
# Track frame offsets: 
#        150
#        9671
#        20473
#        29385
#        39952
#        47989
#        58568
#        70485
#        82941
#        97875
#
# Disc length: 1491 seconds
#
# Revision: 0
# Processed by: cddbd v1.5.2PL0 Copyright (c) Steve Scherf et al.
# Submitted via: ExactAudioCopy v1.3
#
DISCID=7505d10a
DTITLE=Porter Wagoner and Dolly Parton - Love And Music
DYEAR=1973
DGENRE=Country
TTITLE0=If Teardrops Were Pennies
TTITLE1=Sounds Of Nights
TTITLE2=Laugh The Years Away
TTITLE3=You
TTITLE4=Wasting Love
TTITLE5=Come To Me
TTITLE6=Love Is Out Tonight
TTITLE7=In The Presence Of You
TTITLE8=I Get Lonesome By Myself
TTITLE9=There'll Always Be Music
EXTD=
EXTT0=
EXTT1=
EXTT2=
EXTT3=
EXTT4=
EXTT5=
EXTT6=
EXTT7=
EXTT8=
EXTT9=
PLAYORDER=
